<svg xmlns="http://www.w3.org/2000/svg" xmlns:xlink="http://www.w3.org/1999/xlink" width="24px" height="24px" viewBox="0 0 24 24" version="1.1">
    <path d="M 11.25 4.875 C 6 4.875 7.222656 9.503906 4.53125 10.949219 C 1.804688 12.496094 3.308594 13.878906 3.75 15.375 C 4.496094 17.867188 6.582031 16.105469 12.75 14.625 C 18.917969 13.144531 20.246094 13.367188 19.5 10.875 C 19.054688 9.398438 20.519531 8.027344 17.332031 7.894531 C 14.742188 8.039062 15 4.875 11.25 4.875 Z M 11.25 4.875 "/>
    <path d="M 23.167969 10.441406 C 22.421875 7.949219 16.820312 7.128906 10.652344 8.613281 C 4.484375 10.09375 0.0859375 13.316406 0.832031 15.808594 C 1.578125 18.300781 7.179688 19.121094 13.347656 17.636719 C 19.515625 16.15625 23.914062 12.933594 23.167969 10.441406 Z M 23.167969 10.441406 "/>
    <path d="M 17.976562 15.25 C 17.695312 13.976562 15.128906 13.5 12.242188 14.191406 C 9.355469 14.878906 7.242188 16.472656 7.523438 17.75 C 7.804688 19.023438 10.371094 19.5 13.257812 18.808594 C 16.144531 18.121094 18.257812 16.527344 17.976562 15.25 Z M 17.976562 15.25 "/>
</svg>
